# xmcd
#
# Track frame offsets: 
#        150
#        20980
#        78473
#        134081
#        170489
#        180731
#        201234
#        235191
#        255001
#
# Disc length: 3614 seconds
#
# Revision: 0
# Processed by: cddbd v1.5.2PL0 Copyright (c) Steve Scherf et al.
# Submitted via: ExactAudioCopy v1.0b3
#
DISCID=790e1c09
DTITLE=Chitta - Delicate Dimensions
DYEAR=2015
DGENRE=New Age
TTITLE0=First Light
TTITLE1=Pianissimo
TTITLE2=Delicate Dimensions
TTITLE3=Playground
TTITLE4=Wondering
TTITLE5=Dark Night
TTITLE6=Bright Sky
TTITLE7=Sunrise
TTITLE8=Sunset
EXTD=
EXTT0=
EXTT1=
EXTT2=
EXTT3=
EXTT4=
EXTT5=
EXTT6=
EXTT7=
EXTT8=
PLAYORDER=
